<svg width="1127" height="157" viewBox="0 0 1127 157" fill="none" xmlns="http://www.w3.org/2000/svg">
<path d="M164.434 23.1286H176V0.500011H64.1932C54.5546 0.500037 15.9993 19.3571 16.0001 47.6428C16.001 75.9285 15.9996 53.3 16.0001 85.3571C16.0007 117.414 54.5548 132.5 64.1932 132.5H176V106.1H141.301L142.908 104.214H54.5541L81.5419 77.8143H54.5541L81.5419 49.5285H54.5541L83.4696 17.4714H164.434V23.1286Z" fill="#8347A6" fill-opacity="0.2"/>
<path d="M164.434 23.1286H176V0.500011M164.434 23.1286L141.301 45.7571M164.434 23.1286V17.4714H83.4696L54.5541 49.5285H81.5419M176 0.500011C176 0.500011 73.8319 0.499986 64.1932 0.500011M176 0.500011H64.1932M64.1932 0.500011C54.5546 0.500037 15.9993 19.3571 16.0001 47.6428C16.001 75.9285 15.9996 53.3 16.0001 85.3571C16.0007 117.414 54.5548 132.5 64.1932 132.5M64.1932 132.5C73.8316 132.5 176 132.5 176 132.5M64.1932 132.5H176M176 132.5V106.1H141.301L142.908 104.214M142.908 72.1571H170.217L142.908 104.214M142.908 72.1571L170.217 45.7571H141.301M142.908 72.1571L137.445 77.8143H81.5419M141.301 45.7571L137.445 49.5285H81.5419M81.5419 49.5285L54.5541 77.8143H81.5419M81.5419 77.8143L54.5541 104.214H142.908" stroke="#8347A6" stroke-opacity="0.4"/>
<path fill-rule="evenodd" clip-rule="evenodd" d="M281 74.5H280.527L280.14 74.7709L179.027 145.5H0V148.5H179.5H179.973L180.36 148.229L281.473 77.5H1126.5V74.5H281ZM287 83H286.527L286.14 83.2709L185.027 154H0V157H185.5H185.973L186.36 156.729L287.473 86H1127V83H287Z" fill="#8347A6" fill-opacity="0.4"/>
</svg>
