<svg width="301" height="281" viewBox="0 0 301 281" fill="none" xmlns="http://www.w3.org/2000/svg">
<path fill-rule="evenodd" clip-rule="evenodd" d="M238.05 40.7666C238.312 40.984 238.574 41.2024 238.835 41.4216C239.096 41.6409 239.356 41.8607 239.616 42.0812C240.036 42.4389 240.667 42.3878 241.025 41.967C241.383 41.5462 241.332 40.9151 240.911 40.5574C240.649 40.3344 240.385 40.1119 240.121 39.8901C239.857 39.6683 239.593 39.4475 239.328 39.2276C238.903 38.8749 238.272 38.9335 237.92 39.3585C237.567 39.7835 237.625 40.414 238.05 40.7666ZM244.019 43.264C243.607 42.8964 242.975 42.9325 242.607 43.3447C242.24 43.7568 242.276 44.389 242.688 44.7566C244.211 46.1148 245.703 47.495 247.165 48.8962C247.564 49.2783 248.197 49.2649 248.579 48.8661C248.961 48.4674 248.948 47.8344 248.549 47.4523C247.07 46.0345 245.56 44.6382 244.019 43.264ZM231.672 35.7243C232.113 36.0564 232.74 35.9678 233.072 35.5265C233.404 35.0852 233.316 34.4583 232.874 34.1262C231.223 32.8835 229.555 31.6752 227.872 30.5012C227.419 30.1852 226.796 30.2963 226.48 30.7492C226.164 31.2022 226.275 31.8256 226.728 32.1415C228.391 33.3018 230.039 34.496 231.672 35.7243ZM223.365 29.8553C223.825 30.1603 224.446 30.0343 224.751 29.5738C225.056 29.1134 224.93 28.4929 224.469 28.1879C223.896 27.8083 223.321 27.4326 222.745 27.0607C222.281 26.7614 221.662 26.8949 221.363 27.359C221.063 27.8231 221.197 28.442 221.661 28.7414C222.23 29.1089 222.798 29.4802 223.365 29.8553ZM254.351 53.286C253.971 52.8852 253.338 52.8682 252.937 53.2481C252.536 53.628 252.519 54.261 252.899 54.6618C253.367 55.1549 253.83 55.6503 254.291 56.1479C254.666 56.5533 255.298 56.5779 255.704 56.2029C256.109 55.8279 256.134 55.1952 255.759 54.7898C255.293 54.2862 254.824 53.785 254.351 53.286ZM258.511 57.8379C258.146 57.4235 257.514 57.3837 257.1 57.7488C256.685 58.114 256.646 58.7459 257.011 59.1602C258.36 60.6918 259.678 62.2433 260.964 63.8137C261.313 64.2411 261.943 64.3039 262.371 63.9541C262.798 63.6043 262.861 62.9742 262.511 62.5469C261.21 60.9577 259.877 59.3877 258.511 57.8379ZM214.723 24.4997C215.201 24.7763 215.813 24.613 216.089 24.135C216.366 23.6569 216.203 23.0452 215.725 22.7686C213.94 21.7359 212.141 20.7388 210.33 19.777C209.842 19.518 209.237 19.7035 208.978 20.1913C208.719 20.6791 208.904 21.2845 209.392 21.5435C211.182 22.4938 212.959 23.4792 214.723 24.4997ZM205.775 19.6792C206.269 19.9262 206.87 19.7261 207.117 19.2321C207.364 18.7382 207.164 18.1375 206.67 17.8904C206.057 17.584 205.443 17.2815 204.828 16.983C204.331 16.7419 203.732 16.9494 203.491 17.4463C203.25 17.9432 203.458 18.5414 203.955 18.7824C204.563 19.0774 205.17 19.3763 205.775 19.6792ZM267.568 69.0396C267.239 68.5958 266.613 68.5024 266.169 68.831C265.725 69.1596 265.632 69.7859 265.96 70.2297C266.363 70.7739 266.762 71.3199 267.158 71.868C267.481 72.3158 268.106 72.4168 268.554 72.0936C269.002 71.7704 269.103 71.1453 268.78 70.6975C268.379 70.1429 267.975 69.5902 267.568 69.0396ZM271.149 74.0664C270.837 73.6109 270.215 73.4947 269.759 73.8069C269.304 74.1191 269.187 74.7415 269.5 75.1971C270.651 76.877 271.769 78.5743 272.854 80.2877C273.149 80.7544 273.767 80.8932 274.233 80.5979C274.7 80.3025 274.839 79.6847 274.544 79.2181C273.446 77.4841 272.315 75.7665 271.149 74.0664ZM196.553 15.4123C197.061 15.6289 197.649 15.3925 197.865 14.8845C198.082 14.3764 197.845 13.789 197.337 13.5725C195.44 12.7636 193.531 11.9913 191.613 11.2553C191.097 11.0575 190.519 11.3151 190.321 11.8308C190.123 12.3464 190.381 12.9248 190.897 13.1226C192.792 13.8499 194.678 14.6131 196.553 15.4123ZM187.085 11.7133C187.606 11.8985 188.178 11.6269 188.363 11.1066C188.548 10.5863 188.277 10.0144 187.756 9.82915C187.109 9.5987 186.461 9.37233 185.811 9.15004C185.289 8.97116 184.72 9.24974 184.541 9.77225C184.362 10.2948 184.641 10.8634 185.163 11.0422C185.805 11.2619 186.446 11.4856 187.085 11.7133ZM278.774 86.2768C278.502 85.7963 277.892 85.6276 277.411 85.8999C276.931 86.1722 276.762 86.7824 277.034 87.2629C277.369 87.8536 277.7 88.446 278.027 89.0401C278.294 89.5239 278.902 89.7001 279.385 89.4337C279.869 89.1672 280.045 88.5591 279.779 88.0753C279.448 87.4741 279.113 86.8746 278.774 86.2768ZM281.719 91.7021C281.465 91.212 280.861 91.0211 280.371 91.2757C279.881 91.5303 279.69 92.1339 279.944 92.6241C280.883 94.4317 281.788 96.2536 282.658 98.0888C282.894 98.5879 283.491 98.8007 283.99 98.5642C284.489 98.3276 284.702 97.7313 284.465 97.2322C283.585 95.3751 282.67 93.5314 281.719 91.7021ZM177.408 8.59633C177.939 8.74959 178.493 8.4437 178.646 7.9131C178.8 7.38251 178.494 6.82814 177.963 6.67488C175.984 6.10331 173.998 5.56867 172.005 5.07089C171.469 4.93705 170.926 5.26292 170.792 5.79875C170.658 6.33457 170.984 6.87744 171.52 7.01128C173.49 7.50319 175.453 8.03151 177.408 8.59633ZM167.561 6.07329C168.1 6.19409 168.635 5.85514 168.756 5.31622C168.876 4.77731 168.538 4.24251 167.999 4.12172C167.33 3.97175 166.66 3.8259 165.99 3.68415C165.449 3.56989 164.919 3.91529 164.804 4.45563C164.69 4.99596 165.035 5.52662 165.576 5.64088C166.238 5.78096 166.9 5.92509 167.561 6.07329ZM287.808 104.752C287.596 104.242 287.011 104 286.501 104.212C285.991 104.425 285.749 105.01 285.961 105.52C286.222 106.145 286.478 106.772 286.73 107.401C286.936 107.913 287.518 108.162 288.031 107.956C288.543 107.75 288.792 107.168 288.586 106.655C288.331 106.019 288.071 105.385 287.808 104.752ZM290.074 110.493C289.88 109.976 289.304 109.713 288.787 109.906C288.27 110.1 288.007 110.676 288.2 111.193C288.913 113.099 289.59 115.016 290.232 116.943C290.406 117.467 290.973 117.751 291.497 117.576C292.021 117.402 292.304 116.835 292.129 116.311C291.48 114.361 290.795 112.422 290.074 110.493ZM157.581 4.15149C158.126 4.23947 158.639 3.86879 158.727 3.32356C158.815 2.77833 158.445 2.26501 157.899 2.17703C155.866 1.84894 153.829 1.55805 151.788 1.30427C151.24 1.23611 150.74 1.62515 150.672 2.17321C150.604 2.72127 150.993 3.22082 151.541 3.28898C153.558 3.53978 155.571 3.82726 157.581 4.15149ZM147.501 2.83592C148.051 2.89084 148.541 2.48987 148.596 1.94033C148.651 1.39078 148.25 0.900757 147.7 0.845833C147.017 0.777578 146.334 0.713461 145.651 0.653471C145.1 0.605176 144.615 1.01203 144.567 1.5622C144.519 2.11237 144.926 2.59752 145.476 2.64581C146.151 2.70509 146.826 2.76846 147.501 2.83592ZM294.54 124.18C294.391 123.648 293.839 123.338 293.308 123.487C292.776 123.636 292.465 124.187 292.614 124.719C292.797 125.372 292.977 126.026 293.152 126.681C293.294 127.215 293.842 127.532 294.376 127.389C294.909 127.247 295.226 126.699 295.084 126.165C294.907 125.502 294.725 124.841 294.54 124.18ZM296.098 130.152C295.968 129.616 295.428 129.286 294.891 129.415C294.354 129.545 294.024 130.085 294.154 130.622C294.632 132.6 295.073 134.585 295.479 136.577C295.589 137.118 296.117 137.467 296.659 137.357C297.2 137.247 297.549 136.719 297.439 136.178C297.028 134.162 296.581 132.154 296.098 130.152ZM137.359 2.13001C137.911 2.15175 138.376 1.72202 138.398 1.17016C138.42 0.618305 137.99 0.153304 137.438 0.131557C135.382 0.0505124 133.324 0.00663005 131.268 -0.000183728C130.716 -0.00201439 130.266 0.444219 130.265 0.996498C130.263 1.54878 130.709 1.99798 131.261 1.99981C133.294 2.00654 135.327 2.04991 137.359 2.13001ZM127.194 2.03522C127.746 2.02378 128.185 1.56688 128.173 1.01472C128.162 0.462548 127.705 0.024208 127.153 0.0356532C126.467 0.049866 125.782 0.0681987 125.096 0.0906422C124.544 0.108719 124.111 0.570851 124.13 1.12284C124.148 1.67483 124.61 2.10765 125.162 2.08957C125.839 2.06739 126.517 2.04927 127.194 2.03522ZM298.887 144.278C298.803 143.732 298.292 143.358 297.746 143.442C297.2 143.526 296.826 144.037 296.91 144.583C297.013 145.253 297.113 145.923 297.208 146.594C297.285 147.141 297.791 147.521 298.338 147.444C298.885 147.366 299.265 146.86 299.188 146.313C299.092 145.634 298.991 144.956 298.887 144.278ZM299.717 150.394C299.652 149.846 299.155 149.453 298.607 149.518C298.058 149.582 297.666 150.079 297.73 150.627C297.967 152.647 298.168 154.671 298.332 156.698C298.376 157.248 298.859 157.658 299.409 157.614C299.96 157.569 300.37 157.087 300.325 156.536C300.159 154.485 299.956 152.438 299.717 150.394ZM117.042 2.55098C117.592 2.50641 118.002 2.02403 117.958 1.47354C117.913 0.923058 117.431 0.512933 116.88 0.557498C114.83 0.723517 112.782 0.926472 110.738 1.16627C110.19 1.23063 109.797 1.72748 109.862 2.276C109.926 2.82452 110.423 3.217 110.972 3.15264C112.991 2.91564 115.015 2.71506 117.042 2.55098ZM106.938 3.67509C107.485 3.59757 107.866 3.09144 107.788 2.54462C107.711 1.99781 107.204 1.61737 106.658 1.69489C105.979 1.79114 105.3 1.89148 104.623 1.99589C104.077 2.07997 103.702 2.59063 103.786 3.13648C103.871 3.68232 104.381 4.05666 104.927 3.97257C105.597 3.86938 106.267 3.77022 106.938 3.67509ZM300.792 164.752C300.774 164.2 300.312 163.767 299.76 163.785C299.208 163.803 298.775 164.266 298.793 164.817C298.815 165.495 298.833 166.172 298.848 166.85C298.859 167.402 299.316 167.84 299.868 167.829C300.42 167.818 300.859 167.361 300.847 166.809C300.833 166.123 300.815 165.437 300.792 164.752ZM300.883 170.924C300.885 170.371 300.439 169.922 299.886 169.92C299.334 169.919 298.885 170.365 298.883 170.917C298.876 172.95 298.833 174.983 298.753 177.015C298.731 177.567 299.161 178.032 299.713 178.054C300.264 178.075 300.729 177.646 300.751 177.094C300.832 175.037 300.876 172.98 300.883 170.924ZM96.9211 5.40365C97.4623 5.29342 97.8117 4.76536 97.7014 4.22419C97.5912 3.68301 97.0631 3.33366 96.522 3.44389C94.5066 3.85438 92.4978 4.30138 90.4967 4.78479C89.9599 4.91448 89.6298 5.45481 89.7595 5.99166C89.8892 6.5285 90.4295 6.85856 90.9664 6.72887C92.944 6.25111 94.9293 5.80934 96.9211 5.40365ZM87.0257 7.73124C87.5592 7.58866 87.8762 7.04053 87.7336 6.50697C87.591 5.97341 87.0429 5.65646 86.5093 5.79904C85.8466 5.97615 85.1848 6.15729 84.5239 6.34245C83.9921 6.49146 83.6818 7.04337 83.8308 7.57517C83.9798 8.10698 84.5317 8.41729 85.0635 8.26829C85.7166 8.08529 86.3707 7.90627 87.0257 7.73124ZM300.229 185.306C300.278 184.756 299.871 184.271 299.321 184.223C298.77 184.174 298.285 184.581 298.237 185.131C298.178 185.807 298.114 186.482 298.047 187.157C297.992 187.706 298.393 188.196 298.942 188.251C299.492 188.306 299.982 187.905 300.037 187.356C300.105 186.673 300.169 185.99 300.229 185.306ZM299.579 191.444C299.647 190.896 299.258 190.396 298.71 190.328C298.162 190.26 297.662 190.649 297.594 191.197C297.343 193.214 297.056 195.227 296.731 197.236C296.643 197.782 297.014 198.295 297.559 198.383C298.104 198.471 298.618 198.1 298.706 197.555C299.034 195.522 299.325 193.484 299.579 191.444ZM77.2875 10.6509C77.8115 10.4764 78.0948 9.91016 77.9203 9.38617C77.7458 8.86218 77.1795 8.57886 76.6555 8.75335C74.7056 9.40273 72.7658 10.088 70.8371 10.8089C70.3198 11.0023 70.0572 11.5785 70.2506 12.0958C70.4439 12.6131 71.0201 12.8757 71.5374 12.6823C73.4434 11.9698 75.3604 11.2926 77.2875 10.6509ZM67.7449 14.1526C68.2574 13.9468 68.506 13.3644 68.3001 12.8519C68.0942 12.3395 67.5119 12.0909 66.9994 12.2968C66.3637 12.5521 65.7292 12.8115 65.0961 13.0747C64.5861 13.2868 64.3446 13.8721 64.5567 14.382C64.7687 14.892 65.3541 15.1335 65.864 14.9214C66.4897 14.6613 67.1166 14.405 67.7449 14.1526ZM297.199 205.645C297.313 205.105 296.967 204.574 296.427 204.46C295.887 204.346 295.356 204.691 295.242 205.232C295.102 205.894 294.958 206.556 294.809 207.217C294.689 207.756 295.028 208.291 295.567 208.411C296.105 208.532 296.64 208.193 296.761 207.654C296.911 206.985 297.057 206.316 297.199 205.645ZM295.812 211.661C295.946 211.125 295.62 210.582 295.084 210.448C294.548 210.314 294.005 210.64 293.872 211.176C293.38 213.145 292.851 215.108 292.286 217.064C292.133 217.594 292.439 218.149 292.97 218.302C293.5 218.455 294.055 218.149 294.208 217.619C294.779 215.64 295.314 213.654 295.812 211.661ZM58.4331 18.225C58.9321 17.9885 59.145 17.3922 58.9084 16.8931C58.6719 16.394 58.0755 16.1812 57.5765 16.4178C55.7193 17.298 53.8756 18.2133 52.0464 19.1635C51.5562 19.418 51.3653 20.0217 51.6199 20.5119C51.8745 21.002 52.4782 21.1929 52.9683 20.9383C54.7759 19.9993 56.5978 19.0949 58.4331 18.225ZM49.3843 22.8557C49.8681 22.5892 50.0443 21.9811 49.7779 21.4973C49.5115 21.0135 48.9033 20.8373 48.4195 21.1038C47.8184 21.4349 47.2189 21.7698 46.6211 22.1086C46.1406 22.3809 45.9718 22.9911 46.2441 23.4716C46.5164 23.9521 47.1267 24.1209 47.6072 23.8486C48.1979 23.5138 48.7903 23.1828 49.3843 22.8557ZM291.733 225.467C291.912 224.944 291.633 224.376 291.111 224.197C290.588 224.018 290.019 224.297 289.841 224.819C289.621 225.461 289.397 226.102 289.169 226.741C288.984 227.261 289.256 227.833 289.776 228.019C290.296 228.204 290.868 227.932 291.054 227.412C291.284 226.765 291.51 226.116 291.733 225.467ZM289.627 231.269C289.825 230.753 289.568 230.175 289.052 229.977C288.536 229.779 287.958 230.037 287.76 230.552C287.033 232.448 286.27 234.334 285.47 236.209C285.254 236.717 285.49 237.304 285.998 237.521C286.506 237.737 287.094 237.501 287.31 236.993C288.119 235.095 288.891 233.187 289.627 231.269ZM40.632 28.0292C41.0986 27.7338 41.2375 27.1161 40.9421 26.6494C40.6467 26.1828 40.029 26.0439 39.5623 26.3393C37.8283 27.4368 36.1108 28.5682 34.4107 29.7334C33.9551 30.0456 33.8389 30.668 34.1511 31.1236C34.4634 31.5791 35.0858 31.6953 35.5413 31.3831C37.2213 30.2318 38.9185 29.1138 40.632 28.0292ZM32.2122 33.7248C32.6601 33.4016 32.7611 32.7765 32.4378 32.3287C32.1146 31.8809 31.4896 31.7799 31.0417 32.1031C30.4871 32.5035 29.9345 32.9075 29.3838 33.3152C28.94 33.6438 28.8466 34.27 29.1752 34.7139C29.5039 35.1578 30.1301 35.2512 30.574 34.9225C31.1181 34.5196 31.6642 34.1204 32.2122 33.7248ZM283.9 244.483C284.141 243.986 283.933 243.388 283.437 243.147C282.94 242.906 282.341 243.114 282.1 243.61C281.805 244.219 281.506 244.825 281.204 245.431C280.957 245.925 281.157 246.526 281.651 246.773C282.145 247.02 282.745 246.82 282.992 246.326C283.299 245.713 283.601 245.099 283.9 244.483ZM281.106 249.986C281.365 249.498 281.179 248.892 280.691 248.633C280.204 248.374 279.598 248.56 279.339 249.048C278.389 250.838 277.404 252.615 276.383 254.379C276.106 254.857 276.27 255.468 276.748 255.745C277.226 256.022 277.838 255.858 278.114 255.38C279.147 253.595 280.144 251.797 281.106 249.986ZM24.1579 39.9192C24.5853 39.5693 24.6482 38.9393 24.2983 38.5119C23.9485 38.0846 23.3185 38.0217 22.8911 38.3715C21.3019 39.6724 19.7319 41.0058 18.1821 42.3716C17.7678 42.7367 17.7279 43.3686 18.093 43.783C18.4582 44.1973 19.0901 44.2372 19.5044 43.8721C21.036 42.5223 22.5875 41.2047 24.1579 39.9192ZM16.4921 46.592C16.8975 46.217 16.9222 45.5843 16.5471 45.1789C16.1721 44.7735 15.5394 44.7488 15.134 45.1239C14.6305 45.5897 14.1292 46.059 13.6303 46.5319C13.2294 46.9118 13.2124 47.5447 13.5923 47.9456C13.9722 48.3465 14.6052 48.3634 15.006 47.9835C15.4991 47.5162 15.9945 47.0523 16.4921 46.592ZM273.822 262.401C274.121 261.937 273.988 261.318 273.524 261.018C273.06 260.719 272.441 260.852 272.141 261.317C271.774 261.886 271.403 262.454 271.027 263.021C270.722 263.481 270.849 264.102 271.309 264.407C271.769 264.712 272.39 264.585 272.695 264.125C273.074 263.552 273.45 262.977 273.822 262.401ZM270.382 267.528C270.698 267.075 270.587 266.451 270.134 266.136C269.681 265.82 269.057 265.931 268.741 266.384C267.581 268.047 266.387 269.695 265.158 271.327C264.826 271.769 264.915 272.396 265.356 272.728C265.798 273.06 266.425 272.971 266.757 272.53C267.999 270.878 269.208 269.211 270.382 267.528ZM9.24043 53.7175C9.62257 53.3187 9.60911 52.6857 9.21037 52.3036C8.81163 51.9214 8.17861 51.9349 7.79648 52.3336C6.37878 53.8129 4.98241 55.3229 3.60826 56.8636C3.24063 57.2757 3.27674 57.9079 3.6889 58.2755C4.10106 58.6431 4.73319 58.607 5.10082 58.1948C6.45908 56.672 7.83924 55.1795 9.24043 53.7175ZM2.42546 61.2672C2.78317 60.8464 2.73204 60.2153 2.31126 59.8576C1.89048 59.4998 1.25937 59.551 0.901658 59.9718C0.678603 60.2342 0.456174 60.4974 0.234373 60.7615C-0.120837 61.1844 -0.0659512 61.8151 0.356953 62.1703C0.779857 62.5256 1.41063 62.4707 1.76584 62.0478C1.98509 61.7867 2.20496 61.5265 2.42546 61.2672ZM261.655 278.983C262.008 278.558 261.949 277.928 261.524 277.575C261.099 277.223 260.469 277.281 260.116 277.706C259.974 277.877 259.832 278.048 259.689 278.219C259.613 278.31 259.537 278.4 259.461 278.491C259.106 278.914 259.161 279.544 259.584 279.9C260.007 280.255 260.637 280.2 260.993 279.777C261.079 279.674 261.165 279.572 261.251 279.469C261.386 279.307 261.521 279.145 261.655 278.983ZM224.058 58.8645C224.32 59.0819 224.582 59.3004 224.844 59.5199C225.105 59.7394 225.365 59.9596 225.625 60.1804C226.045 60.5384 226.676 60.4878 227.034 60.0672C227.392 59.6467 227.342 59.0156 226.921 58.6576C226.658 58.4338 226.395 58.2107 226.13 57.9884C225.865 57.766 225.6 57.5448 225.334 57.3245C224.909 56.9722 224.278 57.0312 223.926 57.4565C223.574 57.8817 223.633 58.5121 224.058 58.8645ZM230.029 61.3758C229.619 61.0067 228.986 61.0406 228.617 61.4514C228.248 61.8623 228.282 62.4946 228.693 62.8636C230.214 64.2304 231.701 65.6214 233.154 67.0355C233.55 67.4207 234.183 67.4123 234.568 67.0166C234.953 66.6209 234.945 65.9877 234.549 65.6025C233.077 64.1697 231.571 62.7604 230.029 61.3758ZM217.651 53.8366C218.094 54.1659 218.72 54.0733 219.05 53.6298C219.379 53.1864 219.286 52.56 218.843 52.2308C217.181 50.997 215.501 49.8021 213.805 48.646C213.349 48.3349 212.727 48.4527 212.416 48.909C212.105 49.3654 212.223 49.9875 212.679 50.2986C214.353 51.4395 216.01 52.6189 217.651 53.8366ZM209.279 48.0476C209.743 48.3462 210.362 48.2116 210.661 47.747C210.959 47.2824 210.825 46.6637 210.36 46.3651C209.782 45.9937 209.203 45.6268 208.622 45.2642C208.153 44.9719 207.536 45.1148 207.244 45.5834C206.952 46.052 207.094 46.6688 207.563 46.9611C208.137 47.3189 208.709 47.6811 209.279 48.0476ZM240.302 71.5138C239.928 71.1077 239.295 71.082 238.889 71.4564C238.483 71.8307 238.457 72.4634 238.832 72.8694C239.291 73.3678 239.746 73.8686 240.198 74.3718C240.567 74.7829 241.199 74.8172 241.61 74.4483C242.021 74.0795 242.055 73.4473 241.687 73.0362C241.229 72.5262 240.768 72.0188 240.302 71.5138ZM244.403 76.1475C244.045 75.7265 243.414 75.6751 242.993 76.0326C242.572 76.3901 242.521 77.0211 242.878 77.4421C244.2 78.9987 245.486 80.5768 246.734 82.175C247.074 82.6102 247.702 82.6874 248.138 82.3474C248.573 82.0074 248.65 81.379 248.31 80.9438C247.045 79.3241 245.742 77.7249 244.403 76.1475ZM200.543 42.8431C201.027 43.1095 201.635 42.9332 201.901 42.4494C202.168 41.9656 201.992 41.3575 201.508 41.0911C199.694 40.0923 197.865 39.1343 196.024 38.2169C195.529 37.9706 194.929 38.1717 194.683 38.666C194.437 39.1604 194.638 39.7608 195.132 40.007C196.949 40.9122 198.753 41.8576 200.543 42.8431ZM191.461 38.2406C191.962 38.4732 192.557 38.2558 192.789 37.7548C193.022 37.2539 192.804 36.6593 192.303 36.4267C191.679 36.1369 191.054 35.8517 190.427 35.5711C189.923 35.3454 189.332 35.571 189.106 36.0751C188.88 36.5791 189.106 37.1707 189.61 37.3965C190.228 37.6733 190.845 37.9547 191.461 38.2406ZM253.21 87.5829C252.894 87.1296 252.271 87.0181 251.817 87.3337C251.364 87.6494 251.253 88.2726 251.568 88.7258C251.956 89.2829 252.34 89.842 252.719 90.4033C253.029 90.8608 253.651 90.9808 254.108 90.6715C254.566 90.3621 254.686 89.7404 254.376 89.2829C253.992 88.7141 253.603 88.1474 253.21 87.5829ZM256.64 92.7318C256.343 92.266 255.725 92.1288 255.259 92.4255C254.793 92.7222 254.656 93.3403 254.953 93.8062C256.049 95.5271 257.106 97.266 258.125 99.0214C258.402 99.4991 259.014 99.6616 259.492 99.3845C259.969 99.1073 260.132 98.4954 259.855 98.0177C258.822 96.2385 257.751 94.4761 256.64 92.7318ZM182.093 34.2759C182.609 34.4736 183.187 34.2157 183.385 33.7C183.583 33.1843 183.325 32.606 182.809 32.4084C180.877 31.6681 178.935 30.9698 176.984 30.3134C176.461 30.1373 175.894 30.4189 175.718 30.9424C175.542 31.4658 175.823 32.0329 176.347 32.209C178.271 32.8566 180.188 33.5455 182.093 34.2759ZM172.471 30.9645C172.999 31.1261 173.558 30.8289 173.72 30.3008C173.881 29.7727 173.584 29.2136 173.056 29.052C172.398 28.8507 171.739 28.654 171.079 28.462C170.548 28.3078 169.993 28.6127 169.839 29.143C169.685 29.6733 169.99 30.2282 170.52 30.3825C171.171 30.5719 171.821 30.7659 172.471 30.9645ZM263.797 105.267C263.547 104.775 262.945 104.579 262.453 104.829C261.96 105.08 261.764 105.682 262.015 106.174C262.323 106.779 262.626 107.386 262.925 107.995C263.168 108.491 263.768 108.695 264.263 108.452C264.759 108.208 264.964 107.609 264.72 107.113C264.417 106.496 264.109 105.881 263.797 105.267ZM266.487 110.84C266.257 110.337 265.664 110.117 265.162 110.346C264.659 110.576 264.438 111.169 264.668 111.672C265.516 113.526 266.324 115.394 267.091 117.274C267.299 117.786 267.883 118.031 268.394 117.823C268.906 117.614 269.151 117.03 268.943 116.519C268.165 114.613 267.346 112.719 266.487 110.84ZM162.645 28.3269C163.183 28.4515 163.72 28.1164 163.845 27.5783C163.969 27.0403 163.634 26.5031 163.096 26.3785C161.082 25.9121 159.062 25.4886 157.038 25.1079C156.496 25.0058 155.973 25.363 155.871 25.9058C155.769 26.4486 156.126 26.9713 156.669 27.0734C158.665 27.449 160.658 27.8668 162.645 28.3269ZM152.659 26.3769C153.205 26.4638 153.717 26.0922 153.804 25.5468C153.891 25.0014 153.519 24.4888 152.974 24.4018C152.294 24.2935 151.614 24.1899 150.933 24.0911C150.387 24.0118 149.88 24.3905 149.8 24.9371C149.721 25.4837 150.1 25.991 150.646 26.0704C151.318 26.1678 151.989 26.27 152.659 26.3769ZM271.846 124.244C271.666 123.722 271.097 123.445 270.575 123.625C270.053 123.804 269.775 124.374 269.955 124.896C270.176 125.538 270.393 126.181 270.604 126.826C270.777 127.35 271.342 127.636 271.867 127.463C272.391 127.291 272.677 126.725 272.504 126.201C272.29 125.548 272.07 124.895 271.846 124.244ZM273.738 130.136C273.58 129.607 273.023 129.306 272.494 129.464C271.965 129.621 271.664 130.178 271.821 130.708C272.404 132.661 272.944 134.623 273.443 136.593C273.579 137.128 274.122 137.452 274.658 137.317C275.193 137.181 275.517 136.637 275.382 136.102C274.876 134.105 274.328 132.116 273.738 130.136ZM142.562 25.1264C143.112 25.1751 143.597 24.7686 143.646 24.2185C143.695 23.6683 143.288 23.1829 142.738 23.1342C140.68 22.952 138.621 22.8133 136.563 22.7179C136.011 22.6923 135.543 23.1189 135.518 23.6706C135.492 24.2223 135.919 24.6902 136.47 24.7158C138.501 24.8098 140.532 24.9467 142.562 25.1264ZM277.182 144.157C277.077 143.614 276.552 143.26 276.01 143.366C275.467 143.471 275.113 143.996 275.219 144.538C275.348 145.204 275.473 145.871 275.593 146.539C275.69 147.083 276.21 147.444 276.754 147.347C277.297 147.249 277.659 146.729 277.561 146.186C277.439 145.509 277.313 144.832 277.182 144.157ZM132.403 24.5846C132.955 24.5946 133.411 24.1551 133.421 23.6029C133.431 23.0507 132.992 22.5949 132.44 22.5849C131.751 22.5724 131.063 22.5647 130.376 22.5618C129.823 22.5596 129.374 23.0054 129.371 23.5577C129.369 24.11 129.815 24.5595 130.367 24.5618C131.046 24.5646 131.724 24.5722 132.403 24.5846ZM278.233 150.256C278.151 149.709 277.641 149.333 277.095 149.416C276.549 149.498 276.173 150.007 276.255 150.553C276.559 152.568 276.819 154.586 277.036 156.608C277.095 157.157 277.588 157.554 278.138 157.495C278.687 157.436 279.084 156.943 279.025 156.394C278.805 154.344 278.541 152.298 278.233 150.256ZM122.231 24.7578C122.782 24.7289 123.206 24.2584 123.177 23.7068C123.148 23.1553 122.678 22.7316 122.126 22.7605C120.064 22.8686 118.006 23.0203 115.953 23.2157C115.403 23.2681 115 23.7562 115.052 24.306C115.105 24.8558 115.593 25.2591 116.143 25.2067C118.167 25.014 120.197 24.8643 122.231 24.7578ZM279.673 164.622C279.646 164.07 279.176 163.646 278.625 163.673C278.073 163.701 277.648 164.171 277.676 164.722C277.71 165.4 277.739 166.078 277.764 166.756C277.783 167.308 278.247 167.739 278.799 167.719C279.351 167.699 279.782 167.236 279.762 166.684C279.738 165.996 279.708 165.309 279.673 164.622ZM112.098 25.65C112.646 25.582 113.035 25.0826 112.967 24.5345C112.899 23.9864 112.4 23.5972 111.852 23.6652C111.169 23.7499 110.487 23.8394 109.805 23.9338C109.258 24.0097 108.876 24.5146 108.952 25.0616C109.028 25.6087 109.533 25.9907 110.08 25.9149C110.752 25.8218 111.424 25.7335 112.098 25.65ZM279.851 170.809C279.847 170.257 279.396 169.812 278.844 169.816C278.292 169.82 277.847 170.271 277.851 170.824C277.866 172.859 277.837 174.894 277.764 176.927C277.744 177.479 278.175 177.943 278.727 177.962C279.279 177.982 279.743 177.551 279.763 176.999C279.837 174.937 279.866 172.873 279.851 170.809ZM102.054 27.2625C102.596 27.1554 102.948 26.6294 102.841 26.0876C102.734 25.5458 102.208 25.1934 101.666 25.3004C99.6414 25.7006 97.6258 26.1443 95.6208 26.6317C95.0841 26.7621 94.7548 27.3029 94.8852 27.8396C95.0157 28.3762 95.5565 28.7055 96.0931 28.5751C98.07 28.0946 100.057 27.657 102.054 27.2625ZM279.227 185.235C279.279 184.685 278.875 184.198 278.326 184.146C277.776 184.094 277.288 184.498 277.236 185.048C277.173 185.723 277.104 186.398 277.031 187.072C276.971 187.621 277.367 188.114 277.916 188.174C278.466 188.234 278.959 187.837 279.019 187.288C279.093 186.604 279.163 185.92 279.227 185.235ZM92.1535 29.5934C92.6861 29.4475 92.9996 28.8973 92.8536 28.3647C92.7077 27.8321 92.1575 27.5186 91.6249 27.6646C90.9615 27.8464 90.2994 28.033 89.6387 28.2245C89.1082 28.3782 88.8028 28.9328 88.9565 29.4633C89.1102 29.9938 89.6649 30.2992 90.1953 30.1454C90.8467 29.9567 91.4995 29.7727 92.1535 29.5934ZM278.512 191.385C278.588 190.838 278.206 190.333 277.659 190.257C277.112 190.181 276.607 190.563 276.531 191.11C276.252 193.125 275.928 195.134 275.56 197.136C275.461 197.679 275.82 198.2 276.363 198.3C276.906 198.4 277.428 198.041 277.527 197.497C277.901 195.467 278.229 193.429 278.512 191.385ZM82.4495 32.6377C82.9701 32.4532 83.2425 31.8817 83.058 31.3611C82.8735 30.8405 82.3019 30.5681 81.7814 30.7526C79.8373 31.4417 77.9074 32.174 75.9933 32.9493C75.4814 33.1567 75.2345 33.7397 75.4418 34.2516C75.6492 34.7635 76.2322 35.0104 76.7441 34.803C78.6309 34.0388 80.5332 33.317 82.4495 32.6377ZM72.9955 36.3865C73.501 36.1641 73.7305 35.574 73.508 35.0685C73.2856 34.5629 72.6955 34.3335 72.19 34.5559C71.5608 34.8327 70.9334 35.1144 70.308 35.4007C69.8058 35.6306 69.5851 36.2241 69.815 36.7263C70.0449 37.2284 70.6384 37.4491 71.1406 37.2192C71.757 36.9369 72.3753 36.6594 72.9955 36.3865ZM275.796 205.568C275.928 205.032 275.6 204.49 275.064 204.359C274.527 204.227 273.986 204.555 273.854 205.091C273.692 205.749 273.526 206.406 273.354 207.062C273.214 207.596 273.534 208.143 274.068 208.282C274.603 208.422 275.149 208.102 275.289 207.568C275.463 206.902 275.632 206.236 275.796 205.568ZM274.185 211.548C274.34 211.018 274.037 210.462 273.507 210.307C272.977 210.151 272.421 210.454 272.266 210.984C271.693 212.933 271.077 214.872 270.416 216.799C270.236 217.321 270.515 217.89 271.037 218.069C271.559 218.248 272.128 217.97 272.307 217.448C272.978 215.492 273.604 213.525 274.185 211.548ZM63.8477 40.825C64.3353 40.5655 64.5202 39.96 64.2607 39.4724C64.0012 38.9849 63.3957 38.8 62.9081 39.0595C61.089 40.0276 59.2889 41.038 57.5093 42.0904C57.0339 42.3716 56.8764 42.9848 57.1576 43.4602C57.4387 43.9356 58.052 44.0931 58.5274 43.8119C60.2811 42.7748 62.055 41.7791 63.8477 40.825ZM55.0552 45.9366C55.5219 45.6412 55.6608 45.0235 55.3655 44.5568C55.0702 44.0901 54.4524 43.9512 53.9858 44.2465C53.4055 44.6137 52.8276 44.9855 52.2521 45.3619C51.7899 45.6643 51.6603 46.284 51.9626 46.7462C52.2649 47.2084 52.8847 47.338 53.3469 47.0357C53.914 46.6648 54.4834 46.2984 55.0552 45.9366ZM269.395 225.173C269.605 224.662 269.362 224.077 268.851 223.867C268.34 223.657 267.756 223.9 267.546 224.411C267.288 225.037 267.025 225.661 266.758 226.284C266.54 226.791 266.775 227.379 267.282 227.597C267.79 227.815 268.378 227.58 268.596 227.073C268.867 226.441 269.133 225.808 269.395 225.173ZM266.908 230.845C267.141 230.344 266.924 229.749 266.424 229.516C265.923 229.283 265.328 229.499 265.095 230C264.239 231.839 263.339 233.662 262.395 235.47C262.139 235.959 262.329 236.564 262.819 236.819C263.308 237.075 263.912 236.885 264.168 236.396C265.126 234.561 266.039 232.71 266.908 230.845ZM46.6769 51.6917C47.12 51.3621 47.212 50.7356 46.8823 50.2925C46.5527 49.8494 45.9262 49.7574 45.4831 50.0871C43.8318 51.3156 42.2037 52.5848 40.6003 53.8945C40.1726 54.2439 40.109 54.8738 40.4584 55.3016C40.8078 55.7293 41.4378 55.7928 41.8655 55.4434C43.4454 54.1529 45.0497 52.9023 46.6769 51.6917ZM38.7494 58.0683C39.1663 57.7062 39.2108 57.0746 38.8486 56.6576C38.4865 56.2406 37.8549 56.1962 37.4379 56.5583C36.9205 57.0077 36.4059 57.4614 35.8941 57.9196C35.4826 58.288 35.4477 58.9202 35.8161 59.3317C36.1845 59.7431 36.8166 59.7781 37.2281 59.4097C37.7324 58.9583 38.2395 58.5111 38.7494 58.0683ZM260.126 243.598C260.411 243.125 260.258 242.51 259.785 242.226C259.311 241.941 258.697 242.094 258.412 242.567C258.064 243.146 257.711 243.723 257.354 244.297C257.062 244.766 257.205 245.383 257.674 245.675C258.143 245.966 258.76 245.823 259.052 245.354C259.415 244.771 259.773 244.185 260.126 243.598ZM256.817 248.828C257.122 248.368 256.997 247.748 256.537 247.442C256.078 247.136 255.457 247.261 255.151 247.721C254.03 249.407 252.867 251.075 251.661 252.723C251.335 253.168 251.432 253.794 251.878 254.12C252.323 254.446 252.949 254.349 253.275 253.904C254.499 252.232 255.679 250.539 256.817 248.828ZM31.3341 65.0145C31.7228 64.6221 31.7197 63.9889 31.3273 63.6003C30.9348 63.2117 30.3017 63.2148 29.9131 63.6072C28.4667 65.0677 27.047 66.5666 25.6554 68.1038C25.2848 68.5133 25.3162 69.1457 25.7256 69.5163C26.135 69.887 26.7674 69.8555 27.1381 69.4461C28.5096 67.9311 29.9087 66.4538 31.3341 65.0145ZM24.4503 72.5052C24.8087 72.0849 24.7585 71.4537 24.3382 71.0954C23.918 70.7371 23.2868 70.7873 22.9285 71.2075C22.7044 71.4704 22.4811 71.7342 22.2585 71.9991C21.9033 72.4221 21.9582 73.0528 22.3811 73.408C22.804 73.7632 23.4348 73.7084 23.79 73.2855C24.0093 73.0243 24.2294 72.7642 24.4503 72.5052ZM248.203 260.42C248.555 259.994 248.495 259.364 248.07 259.012C247.644 258.66 247.014 258.719 246.662 259.145C246.445 259.407 246.227 259.669 246.007 259.93C245.652 260.353 245.707 260.983 246.13 261.339C246.553 261.694 247.183 261.639 247.539 261.216C247.641 261.094 247.743 260.973 247.844 260.851C247.964 260.707 248.084 260.563 248.203 260.42Z" fill="#8347A6" fill-opacity="0.4"/>
</svg>
