<svg width="850" height="329" viewBox="0 0 850 329" fill="none" xmlns="http://www.w3.org/2000/svg">
<path d="M294.008 275.665L279.529 273.93L273.389 263.279L264.562 263.14C264.562 263.14 262.075 260.839 260.956 251.775C259.837 242.71 258.478 208.761 258.561 203.485C258.643 198.209 261.796 198.259 261.796 198.259L262.033 183.183C262.033 183.183 262.317 165.094 266.278 153.847C270.239 142.6 278.578 133.684 278.578 133.684C278.578 133.684 285.975 104.396 296.754 100.796C307.533 97.1956 338.453 96.1733 338.453 96.1733L392.834 87.2262L489.017 26.9141L500.449 21.8161C500.449 21.8161 508.699 16.7293 514.428 15.2502C522.381 13.1968 535.236 15.577 535.236 15.577L640.679 8.18561C640.679 8.18561 641.416 1.41175 647.091 1.5009C652.766 1.59005 672.943 1.90687 672.943 1.90687C672.943 1.90687 703.912 4.54251 723.28 9.48275C741.027 14.0093 765.303 24.4674 767.813 25.2607C770.323 26.0541 772.751 32.1237 772.751 32.1237C778.425 32.2128 784.648 37.5876 789.621 42.1898C794.595 46.7919 798.259 54.3883 798.259 54.3883L822.866 93.9793C822.866 93.9793 834.751 100.197 836.584 103.996C838.416 107.794 839.429 123.643 839.429 123.643C839.429 123.643 843.233 122.379 846.069 142.595C848.905 162.811 848.299 201.437 848.121 212.743C847.943 224.05 841.389 239.779 841.389 239.779C841.389 239.779 843.688 272.695 836.825 289.467C833.244 298.217 830.282 303.698 824.56 307.369C818.838 311.04 815.638 313.26 805.549 313.102C795.461 312.944 784.742 312.775 781.006 309.701C777.27 306.626 773.623 300.323 770.535 293.704C767.376 286.932 763.883 275.505 763.883 275.505L752.533 275.327L752.604 270.804L639.571 279.584C639.571 279.584 637.754 282.48 636.347 284.057C632.156 288.753 622.987 291.387 622.987 291.387L605.962 291.119L599.991 309.874C599.991 309.874 588.7 318.607 577.485 324.393C566.27 330.179 492.599 302.999 437.242 301.952C380.625 300.881 349.268 327.754 293.109 319.928C250.643 314.01 224.062 300.712 175.102 306.455C99.1101 315.37 71.5081 343.594 0.601563 312.562" stroke="#8347A6" stroke-opacity="0.4" stroke-width="3"/>
</svg>
