<svg width="265" height="636" viewBox="0 0 265 636" fill="none" xmlns="http://www.w3.org/2000/svg">
<path d="M136.794 128.811C150.649 127.079 162.793 125.836 176.532 130.118C191.123 134.666 204.337 141.265 216.611 150.3C221.208 153.684 224.454 156.745 227.81 161.469C231.658 166.885 235.56 174.281 237.623 180.469C241.305 191.515 243.623 204.911 243.623 216.469C243.623 226.068 242.667 237.947 240.147 247.285C237.588 256.769 233.225 265.087 227.81 273.209C224.779 277.756 221.589 281.985 218.089 286.17C214.773 290.137 201.748 301.316 197.123 303.969C176.158 315.998 167.048 324.077 142.123 324.469C126.925 324.709 120.352 319.931 113.486 306.579C109.885 299.579 109.727 285.488 112.235 278.098C115.251 269.209 129.218 256.317 136.794 252.969C144.37 249.622 162.123 247.285 174.315 247.285C186.623 248.969 193.541 252.385 201.716 257.177C213.895 264.316 226.425 273.258 235.428 284.294C242.132 292.512 250.222 301.854 253.677 312.094C259.263 328.652 262.623 347.319 262.623 364.469C262.623 382.016 259.925 405.963 251.744 422.325C247.628 430.556 240.804 437.02 233.78 442.734C224.454 450.321 214.093 459.135 203.081 464.223C188.284 471.061 179.495 472.969 163.623 472.969C155.329 472.969 136.605 470.509 129.176 465.969C120.217 460.494 108.687 449.466 108.142 438.3C107.494 425.024 118.573 414.971 129.176 408.969C142.64 401.348 158.74 398.044 174.315 397.937C182.531 397.88 193.195 397.851 201.123 400.469C209.394 403.201 216.542 407.56 223.319 412.831C248.475 432.397 252.426 465.76 252.426 495.263C252.426 500.785 250.747 509.007 248.623 514.469C245.84 521.626 244.215 529.416 239.623 535.469C234.448 542.291 231.123 546.469 223.123 554.469C218.623 558.969 211.908 562.229 205.525 566.325C171.79 587.976 133.358 600.965 96.8856 616.922C89.6508 620.087 82.7501 621.45 75.3965 623.289C69.1081 624.861 64.6399 628.178 58.0005 628.178M58.0005 628.178L83.123 605.469M58.0005 628.178L89.123 634.469" stroke="#8347A6" stroke-opacity="0.4" stroke-width="3" stroke-linecap="round"/>
<path fill-rule="evenodd" clip-rule="evenodd" d="M33.0719 1.81298C30.4577 0.923468 27.6173 2.32163 26.7278 4.93586L23.4445 14.5854C23.2421 14.701 23.0525 14.847 22.8826 15.0233C22.1689 15.7641 22.0033 16.8316 22.3766 17.7239L2.20546 77.0058C1.31595 79.62 2.71411 82.4604 5.32834 83.3499L127.029 124.76C129.644 125.649 132.484 124.251 133.373 121.637L153.687 61.9373C154.292 61.3897 154.617 60.557 154.48 59.6908C154.477 59.672 154.474 59.6532 154.47 59.6345L157.896 49.5668C158.785 46.9526 157.387 44.1122 154.773 43.2227L33.0719 1.81298ZM154.47 59.6345C154.228 58.3016 152.964 57.3997 151.619 57.6128L83.3514 68.428C82.5772 68.5507 81.7903 68.3031 81.2258 67.7592L26.4176 14.9574C25.5996 14.1693 24.3834 14.0495 23.4445 14.5854L22.3766 17.7239C22.5043 18.0292 22.6951 18.314 22.9486 18.5582L77.7568 71.36C79.4503 72.9916 81.8111 73.7344 84.1338 73.3664L152.402 62.5512C152.899 62.4724 153.339 62.2519 153.687 61.9373L154.47 59.6345Z" fill="#8347A6" fill-opacity="0.4"/>
</svg>
