<svg width="677" height="161" viewBox="0 0 677 161" fill="none" xmlns="http://www.w3.org/2000/svg">
<path fill-rule="evenodd" clip-rule="evenodd" d="M533.686 29.5932C527.433 28.3431 523.61 28.3431 517.357 29.5932C501.031 32.857 489.864 41.8162 486.739 58.1695C485.767 63.2587 485.854 66.3319 486.739 71.4371C489.723 88.6536 500.24 99.564 517.357 103.075C523.604 104.357 527.439 104.357 533.686 103.075C550.803 99.564 561.319 88.6536 564.303 71.4371C565.188 66.3319 565.276 63.2587 564.303 58.1695C561.178 41.8162 550.013 32.857 533.686 29.5932ZM522.411 43.7394C525.414 43.2967 527.501 42.989 530.624 43.8813C537.768 45.9225 543.891 49.5967 546.953 55.1077C548.695 58.2434 550.325 68.4656 548.994 72.4576C545.933 81.6429 540.83 85.5134 531.644 87.7663C526.612 89.0006 523.409 89.0006 518.377 87.7663C509.192 85.5134 504.905 78.5811 503.068 72.4576C502.037 69.0219 502.327 58.1915 504.089 55.1077C508.171 47.9637 514.294 44.9019 521.439 43.8813C521.774 43.8334 522.098 43.7857 522.411 43.7394ZM194.852 104.096V30.6138H264.252C270.375 30.6138 279.569 38.5801 282.622 47.9637C284.596 54.0276 284.756 58.2836 282.622 64.293C279.698 72.5303 266.293 79.6017 266.293 79.6017L286.705 104.096H263.231L229.552 62.2518V60.2107H264.252L267.314 58.1695V52.046L264.252 48.9842H213.223L212.202 104.096H194.852ZM181.585 43.8813H187.709V31.6344H128.515C123.412 31.6344 103 41.8402 103 57.1489C103 64.789 103 65.5658 103 66.5836V66.5836C103 67.6052 103 68.8695 103 77.5605C103 94.9104 123.412 103.075 128.515 103.075H187.709V88.787H169.338L170.189 87.7664H123.412L137.7 73.4782H123.412L137.7 58.1695H123.412L138.72 40.8196H181.585V43.8813ZM320.384 46.9431H373.454C373.454 46.9431 365.29 31.6343 353.043 31.6343H318.343C312.219 31.6343 292.828 41.8402 292.828 55.1077V80.6223C292.828 94.9105 313.925 102.958 318.343 103.075C321.219 103.151 329.434 103.128 338.478 103.103H338.479H338.483L338.488 103.103C343.333 103.089 348.416 103.075 353.043 103.075C366.31 103.075 373.454 86.7458 373.454 86.7458H320.384C320.384 86.7458 308.137 84.7046 308.137 75.5194V60.2107C308.137 50.0048 320.384 46.9431 320.384 46.9431ZM375.495 60.2107H327.528V75.5194H375.495V60.2107ZM387.742 31.6343V104.096H448.977C448.977 104.096 470.127 94.1669 475.512 81.6429C479.921 71.3909 479.775 63.38 475.512 53.0666C470.21 40.2381 448.977 31.6343 448.977 31.6343H387.742ZM402.03 88.787V45.9225H447.957C447.957 45.9225 458.773 49.5779 462.245 56.1283C465.978 63.1714 465.978 69.4969 462.245 76.54C458.773 83.0904 447.957 88.787 447.957 88.787H402.03Z" fill="#47A573"/>
<path d="M517.357 29.5932L517.259 29.1029V29.1029L517.357 29.5932ZM533.686 29.5932L533.588 30.0835V30.0835L533.686 29.5932ZM486.739 58.1695L487.23 58.2633V58.2633L486.739 58.1695ZM486.739 71.4371L487.232 71.3517V71.3517L486.739 71.4371ZM517.357 103.075L517.457 102.585V102.585L517.357 103.075ZM533.686 103.075L533.586 102.585V102.585L533.686 103.075ZM564.303 71.4371L563.81 71.3517V71.3517L564.303 71.4371ZM564.303 58.1695L563.812 58.2633V58.2633L564.303 58.1695ZM530.624 43.8813L530.487 44.3621V44.3621L530.624 43.8813ZM522.411 43.7394L522.338 43.2448V43.2448L522.411 43.7394ZM546.953 55.1077L547.39 54.8649V54.8649L546.953 55.1077ZM548.994 72.4576L549.469 72.6158V72.6157L548.994 72.4576ZM531.644 87.7663L531.525 87.2807V87.2807L531.644 87.7663ZM518.377 87.7663L518.258 88.252V88.252L518.377 87.7663ZM503.068 72.4576L503.547 72.314V72.314L503.068 72.4576ZM504.089 55.1077L504.523 55.3558V55.3558L504.089 55.1077ZM521.439 43.8813L521.509 44.3763V44.3763L521.439 43.8813ZM194.852 30.6138V30.1138H194.352V30.6138H194.852ZM194.852 104.096H194.352V104.596H194.852V104.096ZM264.252 30.6138V31.1138V31.1138V30.6138ZM282.622 47.9637L282.147 48.1184V48.1184L282.622 47.9637ZM282.622 64.293L283.094 64.4603V64.4603L282.622 64.293ZM266.293 79.6017L266.06 79.1595L265.514 79.4475L265.909 79.9218L266.293 79.6017ZM286.705 104.096V104.596H287.772L287.089 103.776L286.705 104.096ZM263.231 104.096L262.842 104.409L262.992 104.596H263.231V104.096ZM229.552 62.2518H229.052V62.428L229.163 62.5653L229.552 62.2518ZM229.552 60.2107V59.7107H229.052V60.2107H229.552ZM264.252 60.2107V60.7107H264.403L264.529 60.6267L264.252 60.2107ZM267.314 58.1695L267.591 58.5855L267.814 58.4371V58.1695H267.314ZM267.314 52.046H267.814V51.8389L267.667 51.6924L267.314 52.046ZM264.252 48.9842L264.605 48.6307L264.459 48.4842H264.252V48.9842ZM213.223 48.9842V48.4842H212.732L212.723 48.975L213.223 48.9842ZM212.202 104.096V104.596H212.693L212.702 104.105L212.202 104.096ZM187.709 43.8813V44.3813H188.209V43.8813H187.709ZM181.585 43.8813H181.085V44.3813H181.585V43.8813ZM187.709 31.6344H188.209V31.1344H187.709V31.6344ZM128.515 31.6344V31.1344H128.515L128.515 31.6344ZM103 57.1489L103.5 57.1489L103 57.1489ZM103 66.5836L102.5 66.5835V66.5836H103ZM103 66.5836L103.5 66.5837V66.5836H103ZM103 77.5605L102.5 77.5606L103 77.5605ZM187.709 103.075V103.575H188.209V103.075H187.709ZM187.709 88.787H188.209V88.287H187.709V88.787ZM169.338 88.787L168.954 88.4669L168.271 89.287H169.338V88.787ZM170.189 87.7664L170.573 88.0865L171.256 87.2664H170.189V87.7664ZM123.412 87.7664L123.058 87.4128L122.205 88.2664H123.412V87.7664ZM137.7 73.4782L138.053 73.8318L138.907 72.9782H137.7V73.4782ZM123.412 73.4782L123.046 73.1371L122.261 73.9782H123.412V73.4782ZM137.7 58.1695L138.065 58.5106L138.85 57.6695H137.7V58.1695ZM123.412 58.1695L123.037 57.8387L122.304 58.6695H123.412V58.1695ZM138.72 40.8196V40.3196H138.495L138.345 40.4888L138.72 40.8196ZM181.585 40.8196H182.085V40.3196H181.585V40.8196ZM373.454 46.9431V47.4431H374.288L373.895 46.7078L373.454 46.9431ZM320.384 46.9431V46.4431H320.322L320.263 46.458L320.384 46.9431ZM353.043 31.6343V32.1343V32.1343V31.6343ZM318.343 31.6343V32.1343V32.1343V31.6343ZM292.828 55.1077L292.328 55.1077V55.1077H292.828ZM292.828 80.6223H292.328V80.6223L292.828 80.6223ZM318.343 103.075L318.33 103.575V103.575L318.343 103.075ZM338.478 103.103V102.603H338.476L338.478 103.103ZM338.483 103.103V103.603L338.486 103.603L338.483 103.103ZM338.488 103.103L338.486 102.603L338.485 102.603L338.488 103.103ZM373.454 86.7458L373.912 86.9462L374.219 86.2458H373.454V86.7458ZM320.384 86.7458L320.302 87.239L320.343 87.2458H320.384V86.7458ZM327.528 60.2107V59.7107H327.028V60.2107H327.528ZM375.495 60.2107H375.995V59.7107H375.495V60.2107ZM327.528 75.5194H327.028V76.0194H327.528V75.5194ZM375.495 75.5194V76.0194H375.995V75.5194H375.495ZM387.742 104.096H387.242V104.596H387.742V104.096ZM387.742 31.6343V31.1343H387.242V31.6343H387.742ZM448.977 104.096V104.596H449.089L449.19 104.548L448.977 104.096ZM475.512 81.6429L475.972 81.8404V81.8404L475.512 81.6429ZM475.512 53.0666L475.974 52.8756V52.8756L475.512 53.0666ZM448.977 31.6343L449.165 31.1709L449.075 31.1343H448.977V31.6343ZM402.03 45.9225V45.4225H401.53V45.9225H402.03ZM402.03 88.787H401.53V89.287H402.03V88.787ZM447.957 45.9225L448.117 45.4488L448.039 45.4225H447.957V45.9225ZM462.245 56.1283L461.803 56.3625V56.3625L462.245 56.1283ZM462.245 76.54L461.803 76.3058V76.3058L462.245 76.54ZM447.957 88.787V89.287H448.08L448.19 89.2294L447.957 88.787ZM517.455 30.0835C523.644 28.8463 527.4 28.8463 533.588 30.0835L533.784 29.1029C527.466 27.8399 523.577 27.8399 517.259 29.1029L517.455 30.0835ZM487.23 58.2633C488.774 50.184 492.297 43.957 497.432 39.3447C502.571 34.7277 509.355 31.7028 517.455 30.0835L517.259 29.1029C509.033 30.7473 502.07 33.8339 496.763 38.6008C491.452 43.3723 487.829 49.8017 486.248 58.0756L487.23 58.2633ZM487.232 71.3517C486.355 66.2962 486.271 63.2845 487.23 58.2633L486.248 58.0756C485.262 63.233 485.353 66.3676 486.246 71.5224L487.232 71.3517ZM517.457 102.585C508.981 100.847 502.169 97.2829 497.108 92.0481C492.047 86.8131 488.71 79.8783 487.232 71.3517L486.246 71.5224C487.753 80.2123 491.166 87.3409 496.389 92.7431C501.612 98.1454 508.616 101.793 517.257 103.565L517.457 102.585ZM533.586 102.585C527.405 103.853 523.638 103.853 517.457 102.585L517.257 103.565C523.57 104.86 527.473 104.86 533.787 103.565L533.586 102.585ZM563.81 71.3517C562.332 79.8783 558.996 86.8131 553.935 92.0481C548.875 97.2829 542.062 100.847 533.586 102.585L533.787 103.565C542.427 101.793 549.432 98.1454 554.654 92.7431C559.876 87.3409 563.289 80.2123 564.796 71.5224L563.81 71.3517ZM563.812 58.2633C564.771 63.2845 564.687 66.2962 563.81 71.3517L564.796 71.5224C565.689 66.3676 565.78 63.233 564.794 58.0756L563.812 58.2633ZM533.588 30.0835C541.689 31.7028 548.472 34.7277 553.611 39.3447C558.745 43.957 562.268 50.184 563.812 58.2633L564.794 58.0756C563.213 49.8017 559.591 43.3724 554.279 38.6008C548.973 33.8339 542.01 30.7473 533.784 29.1029L533.588 30.0835ZM530.761 43.4005C527.526 42.4763 525.346 42.8014 522.338 43.2448L522.484 44.2341C525.483 43.792 527.475 43.5017 530.487 44.3621L530.761 43.4005ZM547.39 54.8649C544.237 49.1898 537.968 45.4596 530.761 43.4005L530.487 44.3621C537.568 46.3854 543.545 50.0035 546.516 55.3506L547.39 54.8649ZM549.469 72.6157C549.826 71.5428 549.975 70.093 549.982 68.5058C549.989 66.9092 549.853 65.1358 549.622 63.3956C549.39 61.6549 549.061 59.9385 548.678 58.4553C548.298 56.9812 547.857 55.7052 547.39 54.8649L546.516 55.3506C546.92 56.0781 547.336 57.2558 547.71 58.705C548.081 60.1451 548.403 61.8217 548.63 63.5275C548.858 65.2338 548.989 66.9604 548.982 68.5013C548.975 70.0515 548.828 71.3764 548.52 72.2995L549.469 72.6157ZM531.764 88.252C536.396 87.1156 540.052 85.5593 542.94 83.0918C545.834 80.6203 547.917 77.2696 549.469 72.6158L548.52 72.2995C547.01 76.8309 545.011 80.0081 542.291 82.3314C539.566 84.6587 536.078 86.1641 531.525 87.2807L531.764 88.252ZM518.258 88.252C523.368 89.5054 526.653 89.5054 531.764 88.252L531.525 87.2807C526.571 88.4958 523.45 88.4958 518.496 87.2807L518.258 88.252ZM502.589 72.6013C504.456 78.8243 508.839 85.9419 518.258 88.252L518.496 87.2807C509.544 85.0849 505.354 78.3379 503.547 72.314L502.589 72.6013ZM503.655 54.8597C503.168 55.7107 502.809 57.0391 502.548 58.5516C502.285 60.0799 502.114 61.8516 502.032 63.6275C501.868 67.1549 502.048 70.7956 502.589 72.6013L503.547 72.314C503.058 70.6839 502.867 67.1915 503.031 63.6739C503.112 61.9273 503.279 60.1984 503.534 58.7213C503.791 57.2285 504.128 56.0466 504.523 55.3558L503.655 54.8597ZM521.368 43.3863C514.11 44.4232 507.831 47.5511 503.655 54.8597L504.523 55.3558C508.511 48.3762 514.479 45.3806 521.509 44.3763L521.368 43.3863ZM522.338 43.2448C522.025 43.291 521.702 43.3386 521.368 43.3863L521.509 44.3763C521.846 44.3281 522.171 44.2803 522.484 44.2341L522.338 43.2448ZM194.352 30.6138V104.096H195.352V30.6138H194.352ZM264.252 30.1138H194.852V31.1138H264.252V30.1138ZM283.098 47.8089C281.54 43.0228 278.425 38.6147 274.927 35.4016C271.445 32.2044 267.499 30.1138 264.252 30.1138V31.1138C267.128 31.1138 270.84 33.0063 274.25 36.1381C277.643 39.2541 280.651 43.5209 282.147 48.1184L283.098 47.8089ZM283.094 64.4603C284.175 61.4148 284.683 58.7897 284.663 56.1449C284.642 53.5027 284.094 50.8692 283.098 47.8089L282.147 48.1184C283.124 51.1221 283.643 53.6485 283.663 56.1527C283.682 58.6542 283.204 61.1618 282.151 64.1257L283.094 64.4603ZM266.293 79.6017C266.526 80.044 266.526 80.0439 266.527 80.0438C266.527 80.0437 266.527 80.0436 266.527 80.0435C266.528 80.0432 266.529 80.0428 266.529 80.0423C266.531 80.0413 266.534 80.0399 266.537 80.0381C266.544 80.0344 266.554 80.029 266.568 80.022C266.594 80.0078 266.633 79.9869 266.683 79.9595C266.784 79.9046 266.932 79.8235 267.12 79.7175C267.496 79.5057 268.036 79.1944 268.693 78.7954C270.005 77.9976 271.787 76.847 273.662 75.4358C277.386 72.6326 281.578 68.7294 283.094 64.4603L282.151 64.1257C280.742 68.0939 276.769 71.845 273.06 74.6369C271.218 76.0232 269.466 77.1553 268.173 77.9408C267.528 78.3334 266.997 78.639 266.63 78.846C266.446 78.9495 266.302 79.0284 266.205 79.0811C266.157 79.1075 266.12 79.1273 266.096 79.1404C266.083 79.147 266.074 79.1519 266.068 79.1551C266.065 79.1566 266.063 79.1578 266.062 79.1586C266.061 79.1589 266.06 79.1592 266.06 79.1593C266.06 79.1594 266.06 79.1595 266.06 79.1595C266.06 79.1595 266.06 79.1595 266.293 79.6017ZM287.089 103.776L266.677 79.2816L265.909 79.9218L286.321 104.416L287.089 103.776ZM263.231 104.596H286.705V103.596H263.231V104.596ZM229.163 62.5653L262.842 104.409L263.621 103.782L229.942 61.9383L229.163 62.5653ZM229.052 60.2107V62.2518H230.052V60.2107H229.052ZM264.252 59.7107H229.552V60.7107H264.252V59.7107ZM267.036 57.7535L263.975 59.7946L264.529 60.6267L267.591 58.5855L267.036 57.7535ZM266.814 52.046V58.1695H267.814V52.046H266.814ZM263.898 49.3378L266.96 52.3995L267.667 51.6924L264.605 48.6307L263.898 49.3378ZM213.223 49.4842H264.252V48.4842H213.223V49.4842ZM212.702 104.105L213.723 48.9935L212.723 48.975L211.702 104.086L212.702 104.105ZM194.852 104.596H212.202V103.596H194.852V104.596ZM187.709 43.3813H181.585V44.3813H187.709V43.3813ZM187.209 31.6344V43.8813H188.209V31.6344H187.209ZM128.515 32.1344H187.709V31.1344H128.515V32.1344ZM103.5 57.1489C103.5 49.7241 108.456 43.4744 114.151 39.0455C116.988 36.8384 119.984 35.1042 122.582 33.9234C125.202 32.7326 127.352 32.1344 128.515 32.1344L128.515 31.1344C127.126 31.1344 124.811 31.8118 122.168 33.013C119.504 34.2242 116.44 35.9983 113.537 38.2562C107.749 42.7574 102.5 49.265 102.5 57.1489L103.5 57.1489ZM103.5 66.5836C103.5 65.5658 103.5 64.789 103.5 57.1489L102.5 57.1489C102.5 64.789 102.5 65.5658 102.5 66.5835L103.5 66.5836ZM103.5 66.5836V66.5836H102.5V66.5836H103.5ZM103.5 77.5605C103.5 68.8695 103.5 67.6052 103.5 66.5837L102.5 66.5836C102.5 67.6052 102.5 68.8696 102.5 77.5606L103.5 77.5605ZM128.515 102.575C127.333 102.575 125.17 102.092 122.559 101.063C119.963 100.04 116.972 98.4976 114.14 96.4209C108.47 92.2633 103.5 86.0167 103.5 77.5605L102.5 77.5606C102.5 86.4543 107.736 92.965 113.548 97.2273C116.457 99.3604 119.526 100.943 122.192 101.994C124.843 103.038 127.145 103.575 128.515 103.575V102.575ZM187.709 102.575H128.515V103.575H187.709V102.575ZM187.209 88.787V103.075H188.209V88.787H187.209ZM169.338 89.287H187.709V88.287H169.338V89.287ZM169.805 87.4463L168.954 88.4669L169.722 89.107L170.573 88.0865L169.805 87.4463ZM123.412 88.2664H170.189V87.2664H123.412V88.2664ZM137.346 73.1247L123.058 87.4128L123.765 88.1199L138.053 73.8318L137.346 73.1247ZM123.412 73.9782H137.7V72.9782H123.412V73.9782ZM137.334 57.8283L123.046 73.1371L123.777 73.8194L138.065 58.5106L137.334 57.8283ZM123.412 58.6695H137.7V57.6695H123.412V58.6695ZM138.345 40.4888L123.037 57.8387L123.787 58.5003L139.095 41.1504L138.345 40.4888ZM181.585 40.3196H138.72V41.3196H181.585V40.3196ZM182.085 43.8813V40.8196H181.085V43.8813H182.085ZM373.454 46.4431H320.384V47.4431H373.454V46.4431ZM353.043 32.1343C358.956 32.1343 363.935 35.836 367.475 39.6299C369.238 41.5185 370.625 43.4092 371.571 44.8284C372.044 45.5376 372.406 46.1278 372.649 46.5395C372.77 46.7453 372.862 46.9065 372.923 47.0155C372.954 47.0699 372.977 47.1114 372.992 47.1389C372.999 47.1526 373.005 47.1628 373.008 47.1695C373.01 47.1728 373.011 47.1752 373.012 47.1767C373.013 47.1774 373.013 47.1779 373.013 47.1782C373.013 47.1784 373.013 47.1784 373.013 47.1785C373.013 47.1785 373.013 47.1784 373.454 46.9431C373.895 46.7078 373.895 46.7076 373.895 46.7073C373.895 46.7072 373.895 46.7069 373.895 46.7066C373.894 46.7059 373.894 46.705 373.893 46.7039C373.892 46.7017 373.89 46.6986 373.888 46.6945C373.884 46.6864 373.878 46.6747 373.869 46.6595C373.853 46.629 373.828 46.5845 373.796 46.5269C373.731 46.4116 373.636 46.2438 373.51 46.0311C373.259 45.6056 372.887 44.9998 372.403 44.2737C371.436 42.8226 370.016 40.8861 368.207 38.9475C364.603 35.087 359.376 31.1343 353.043 31.1343V32.1343ZM318.343 32.1343H353.043V31.1343H318.343V32.1343ZM293.328 55.1077C293.328 48.7165 298.013 42.9779 303.589 38.7957C306.364 36.7148 309.328 35.0439 311.972 33.8949C314.632 32.7389 316.916 32.1343 318.343 32.1343V31.1343C316.708 31.1343 314.271 31.8055 311.574 32.9777C308.86 34.1569 305.828 35.8667 302.989 37.9957C297.339 42.2333 292.328 48.2314 292.328 55.1077L293.328 55.1077ZM293.328 80.6223V55.1077H292.328V80.6223H293.328ZM318.356 102.575C317.341 102.548 315.26 102.05 312.671 101.06C310.101 100.076 307.082 98.6286 304.203 96.7445C298.416 92.9581 293.328 87.5048 293.328 80.6223L292.328 80.6223C292.328 88.0279 297.789 93.7425 303.655 97.5812C306.602 99.5097 309.686 100.989 312.314 101.994C314.923 102.992 317.136 103.543 318.33 103.575L318.356 102.575ZM338.476 102.603C329.426 102.628 321.223 102.651 318.356 102.575L318.33 103.575C321.215 103.651 329.441 103.628 338.479 103.603L338.476 102.603ZM338.479 102.603H338.478V103.603H338.479V102.603ZM338.483 102.603H338.479V103.603H338.483V102.603ZM338.485 102.603L338.481 102.603L338.486 103.603L338.49 103.603L338.485 102.603ZM353.043 102.575C348.415 102.575 343.331 102.589 338.486 102.603L338.489 103.603C343.335 103.589 348.416 103.575 353.043 103.575V102.575ZM373.454 86.7458C372.996 86.5454 372.996 86.5453 372.996 86.5453C372.996 86.5453 372.996 86.5454 372.996 86.5455C372.996 86.5458 372.996 86.5463 372.995 86.5471C372.995 86.5487 372.994 86.5512 372.992 86.5547C372.989 86.5618 372.984 86.5726 372.977 86.5872C372.964 86.6164 372.944 86.6605 372.917 86.7185C372.863 86.8345 372.782 87.0062 372.673 87.2254C372.456 87.6641 372.13 88.293 371.697 89.0487C370.83 90.5612 369.539 92.5758 367.842 94.588C364.435 98.6255 359.459 102.575 353.043 102.575V103.575C359.894 103.575 365.124 99.3601 368.606 95.2329C370.353 93.1627 371.677 91.095 372.564 89.5458C373.009 88.7706 373.344 88.1238 373.569 87.6694C373.682 87.4422 373.767 87.263 373.824 87.1398C373.853 87.0783 373.874 87.0307 373.889 86.998C373.896 86.9817 373.902 86.9692 373.906 86.9605C373.908 86.9562 373.909 86.9528 373.91 86.9504C373.911 86.9492 373.911 86.9483 373.912 86.9476C373.912 86.9472 373.912 86.9469 373.912 86.9467C373.912 86.9464 373.912 86.9462 373.454 86.7458ZM320.384 87.2458H373.454V86.2458H320.384V87.2458ZM307.637 75.5194C307.637 80.38 310.89 83.3203 314.022 85.0167C315.593 85.8678 317.16 86.4219 318.33 86.7633C318.917 86.9343 319.406 87.0526 319.75 87.1284C319.922 87.1664 320.058 87.1937 320.152 87.2117C320.199 87.2207 320.236 87.2274 320.261 87.2319C320.273 87.2341 320.283 87.2358 320.29 87.237C320.293 87.2376 320.296 87.238 320.298 87.2384C320.299 87.2385 320.3 87.2387 320.3 87.2388C320.301 87.2388 320.301 87.2389 320.301 87.2389C320.302 87.239 320.302 87.239 320.384 86.7458C320.466 86.2526 320.466 86.2526 320.466 86.2526C320.466 86.2526 320.466 86.2526 320.466 86.2526C320.466 86.2526 320.466 86.2525 320.465 86.2525C320.464 86.2523 320.463 86.252 320.46 86.2516C320.455 86.2507 320.447 86.2494 320.437 86.2475C320.416 86.2437 320.383 86.2378 320.341 86.2296C320.255 86.2132 320.128 86.1877 319.965 86.1518C319.64 86.0802 319.172 85.9672 318.61 85.8033C317.485 85.475 315.989 84.9448 314.499 84.1374C311.507 82.5169 308.637 79.844 308.637 75.5194H307.637ZM307.637 60.2107V75.5194H308.637V60.2107H307.637ZM320.384 46.9431C320.263 46.458 320.262 46.4581 320.262 46.4581C320.262 46.4582 320.262 46.4583 320.261 46.4583C320.261 46.4585 320.26 46.4587 320.259 46.459C320.257 46.4595 320.254 46.4601 320.251 46.461C320.244 46.4628 320.234 46.4653 320.221 46.4687C320.196 46.4753 320.16 46.4851 320.113 46.4982C320.018 46.5243 319.882 46.5636 319.71 46.6169C319.365 46.7236 318.876 46.8869 318.289 47.1149C317.118 47.5705 315.552 48.2875 313.983 49.3337C310.848 51.4234 307.637 54.8742 307.637 60.2107H308.637C308.637 55.3413 311.549 52.1583 314.538 50.1657C316.03 49.1707 317.527 48.4844 318.652 48.0469C319.213 47.8285 319.68 47.6729 320.006 47.5722C320.168 47.5219 320.295 47.4854 320.38 47.4617C320.423 47.4499 320.455 47.4412 320.476 47.4357C320.487 47.4329 320.494 47.4309 320.499 47.4296C320.502 47.429 320.504 47.4286 320.504 47.4283C320.505 47.4282 320.505 47.4281 320.505 47.4281C320.505 47.4281 320.505 47.4281 320.505 47.4281C320.505 47.4281 320.505 47.4282 320.384 46.9431ZM327.528 60.7107H375.495V59.7107H327.528V60.7107ZM328.028 75.5194V60.2107H327.028V75.5194H328.028ZM375.495 75.0194H327.528V76.0194H375.495V75.0194ZM374.995 60.2107V75.5194H375.995V60.2107H374.995ZM388.242 104.096V31.6343H387.242V104.096H388.242ZM448.977 103.596H387.742V104.596H448.977V103.596ZM475.053 81.4454C472.421 87.5653 465.896 93.1102 459.944 97.1522C456.981 99.1646 454.183 100.789 452.127 101.91C451.099 102.47 450.256 102.904 449.672 103.198C449.38 103.345 449.152 103.456 448.998 103.531C448.921 103.569 448.862 103.597 448.823 103.616C448.803 103.625 448.788 103.632 448.779 103.636C448.774 103.639 448.77 103.641 448.768 103.642C448.767 103.642 448.766 103.643 448.765 103.643C448.765 103.643 448.765 103.643 448.765 103.643C448.765 103.643 448.765 103.643 448.977 104.096C449.19 104.548 449.19 104.548 449.19 104.548C449.19 104.548 449.191 104.548 449.191 104.548C449.192 104.547 449.193 104.547 449.194 104.546C449.197 104.545 449.201 104.543 449.206 104.54C449.217 104.535 449.233 104.528 449.253 104.518C449.294 104.498 449.355 104.469 449.434 104.431C449.592 104.354 449.824 104.24 450.121 104.091C450.714 103.793 451.566 103.354 452.605 102.788C454.682 101.656 457.509 100.015 460.506 97.9794C466.475 93.9259 473.218 88.2444 475.972 81.8404L475.053 81.4454ZM475.05 53.2576C477.165 58.3736 478.246 62.8892 478.264 67.3798C478.282 71.869 477.237 76.3663 475.053 81.4454L475.972 81.8404C478.196 76.6675 479.283 72.0334 479.264 67.3758C479.246 62.7195 478.123 58.073 475.974 52.8756L475.05 53.2576ZM448.977 31.6343C448.789 32.0977 448.789 32.0977 448.789 32.0978C448.79 32.0978 448.79 32.0979 448.79 32.098C448.79 32.0982 448.791 32.0985 448.792 32.099C448.795 32.0999 448.798 32.1014 448.803 32.1034C448.813 32.1074 448.828 32.1134 448.847 32.1215C448.887 32.1377 448.945 32.1622 449.023 32.1948C449.177 32.26 449.405 32.3576 449.698 32.4867C450.284 32.7448 451.129 33.1284 452.159 33.6289C454.221 34.6302 457.024 36.0979 459.99 37.9631C465.948 41.7094 472.463 46.9972 475.05 53.2576L475.974 52.8756C473.26 46.3075 466.506 40.8792 460.522 37.1165C457.518 35.2271 454.681 33.7421 452.596 32.7294C451.553 32.2228 450.697 31.834 450.101 31.5715C449.803 31.4403 449.57 31.3405 449.411 31.2734C449.332 31.2399 449.271 31.2145 449.229 31.1973C449.208 31.1888 449.193 31.1823 449.182 31.1779C449.177 31.1757 449.172 31.174 449.17 31.1728C449.168 31.1723 449.167 31.1718 449.166 31.1715C449.166 31.1713 449.166 31.1712 449.165 31.1711C449.165 31.171 449.165 31.1709 448.977 31.6343ZM387.742 32.1343H448.977V31.1343H387.742V32.1343ZM401.53 45.9225V88.787H402.53V45.9225H401.53ZM447.957 45.4225H402.03V46.4225H447.957V45.4225ZM462.687 55.8942C460.879 52.4843 457.197 49.8741 454.04 48.1313C452.452 47.254 450.974 46.5846 449.893 46.1345C449.353 45.9092 448.911 45.7385 448.603 45.6238C448.449 45.5665 448.328 45.5231 448.246 45.4939C448.205 45.4793 448.173 45.4682 448.151 45.4607C448.14 45.4569 448.132 45.454 448.126 45.4521C448.123 45.4511 448.121 45.4503 448.119 45.4498C448.119 45.4495 448.118 45.4493 448.118 45.4491C448.117 45.449 448.117 45.449 448.117 45.4489C448.117 45.4489 448.117 45.4488 447.957 45.9225C447.797 46.3962 447.796 46.3962 447.796 46.3962C447.796 46.3962 447.797 46.3962 447.797 46.3962C447.797 46.3963 447.797 46.3964 447.798 46.3966C447.799 46.3969 447.8 46.3975 447.803 46.3983C447.807 46.3999 447.815 46.4024 447.824 46.4057C447.844 46.4124 447.873 46.4227 447.912 46.4364C447.99 46.464 448.105 46.5055 448.254 46.5609C448.551 46.6717 448.981 46.8377 449.509 47.0576C450.565 47.4975 452.008 48.1513 453.557 49.0067C456.677 50.7292 460.138 53.2219 461.803 56.3625L462.687 55.8942ZM462.687 76.7741C464.583 73.1965 465.545 69.7743 465.545 66.3341C465.545 62.8939 464.583 59.4718 462.687 55.8942L461.803 56.3625C463.64 59.8279 464.545 63.0901 464.545 66.3341C464.545 69.5782 463.64 72.8404 461.803 76.3058L462.687 76.7741ZM447.957 88.787C448.19 89.2294 448.19 89.2293 448.19 89.2292C448.19 89.2292 448.19 89.2291 448.19 89.2289C448.191 89.2287 448.191 89.2284 448.192 89.228C448.194 89.2272 448.196 89.2261 448.199 89.2246C448.204 89.2216 448.212 89.2172 448.223 89.2115C448.245 89.2001 448.276 89.1833 448.317 89.1611C448.399 89.1169 448.518 89.0515 448.672 88.9662C448.978 88.7955 449.418 88.545 449.957 88.2241C451.034 87.5825 452.506 86.6581 454.089 85.5267C457.237 83.2772 460.892 80.159 462.687 76.7741L461.803 76.3058C460.125 79.4714 456.637 82.4767 453.508 84.7131C451.953 85.8246 450.505 86.7338 449.445 87.365C448.915 87.6804 448.484 87.9261 448.185 88.0926C448.035 88.1758 447.919 88.2392 447.841 88.2816C447.802 88.3028 447.772 88.3188 447.752 88.3293C447.742 88.3346 447.735 88.3385 447.73 88.341C447.728 88.3423 447.726 88.3433 447.725 88.3438C447.724 88.3441 447.724 88.3443 447.724 88.3445C447.724 88.3445 447.724 88.3446 447.724 88.3446C447.724 88.3446 447.724 88.3446 447.957 88.787ZM402.03 89.287H447.957V88.287H402.03V89.287Z" fill="#47A573"/>
<path d="M148.818 139H147.727C147.614 138.409 147.401 137.838 147.088 137.287C146.776 136.73 146.372 136.23 145.878 135.787C145.389 135.338 144.821 134.983 144.173 134.722C143.526 134.46 142.81 134.33 142.026 134.33C140.878 134.33 139.821 134.636 138.855 135.25C137.895 135.858 137.125 136.753 136.545 137.935C135.972 139.117 135.685 140.563 135.685 142.273C135.685 143.994 135.972 145.446 136.545 146.628C137.125 147.81 137.895 148.705 138.855 149.313C139.821 149.915 140.878 150.216 142.026 150.216C142.81 150.216 143.526 150.088 144.173 149.832C144.821 149.571 145.389 149.219 145.878 148.776C146.372 148.327 146.776 147.824 147.088 147.267C147.401 146.71 147.614 146.136 147.727 145.545H148.818C148.693 146.25 148.452 146.94 148.094 147.617C147.741 148.293 147.276 148.906 146.696 149.457C146.122 150.003 145.443 150.438 144.659 150.761C143.881 151.08 143.003 151.239 142.026 151.239C140.571 151.239 139.29 150.869 138.182 150.131C137.074 149.386 136.205 148.341 135.574 146.994C134.949 145.648 134.636 144.074 134.636 142.273C134.636 140.472 134.949 138.898 135.574 137.551C136.205 136.205 137.074 135.162 138.182 134.423C139.29 133.679 140.571 133.307 142.026 133.307C143.003 133.307 143.881 133.469 144.659 133.793C145.443 134.111 146.122 134.543 146.696 135.088C147.276 135.628 147.741 136.236 148.094 136.912C148.452 137.588 148.693 138.284 148.818 139ZM161.354 134.534V133.545H173.584V134.534H168.002V151H166.937V134.534H161.354ZM187.066 151V133.545H192.444C193.552 133.545 194.501 133.773 195.291 134.227C196.086 134.682 196.697 135.304 197.123 136.094C197.549 136.884 197.763 137.784 197.763 138.795C197.763 139.795 197.549 140.69 197.123 141.48C196.697 142.27 196.086 142.895 195.291 143.355C194.501 143.81 193.555 144.037 192.453 144.037H187.816V143.048H192.427C193.325 143.048 194.092 142.867 194.728 142.503C195.365 142.134 195.853 141.631 196.194 140.994C196.535 140.352 196.706 139.619 196.706 138.795C196.706 137.966 196.535 137.23 196.194 136.588C195.853 135.946 195.362 135.443 194.72 135.08C194.084 134.716 193.316 134.534 192.419 134.534H188.132V151H187.066ZM209.001 151H207.876L214.174 133.545H215.402L221.7 151H220.575L214.831 134.918H214.745L209.001 151ZM210.595 144.429H218.981V145.418H210.595V144.429ZM234.078 133.545L239.235 141.446H239.328L244.485 133.545H245.771L240.036 142.273L245.771 151H244.485L239.328 143.151H239.235L234.078 151H232.791L238.578 142.273L232.791 133.545H234.078ZM272.453 142.273C272.453 144.074 272.141 145.648 271.516 146.994C270.891 148.335 270.021 149.378 268.908 150.122C267.8 150.867 266.521 151.239 265.072 151.239C263.618 151.239 262.334 150.867 261.22 150.122C260.112 149.372 259.246 148.327 258.621 146.986C257.996 145.639 257.683 144.068 257.683 142.273C257.683 140.472 257.996 138.901 258.621 137.56C259.251 136.219 260.121 135.176 261.229 134.432C262.337 133.682 263.618 133.307 265.072 133.307C266.521 133.307 267.8 133.679 268.908 134.423C270.021 135.168 270.891 136.213 271.516 137.56C272.141 138.901 272.453 140.472 272.453 142.273ZM271.413 142.273C271.413 140.653 271.141 139.25 270.595 138.063C270.055 136.875 269.308 135.957 268.354 135.31C267.399 134.656 266.305 134.33 265.072 134.33C263.839 134.33 262.746 134.653 261.791 135.301C260.837 135.943 260.087 136.861 259.541 138.054C259.001 139.242 258.732 140.648 258.732 142.273C258.732 143.881 258.999 145.281 259.533 146.474C260.072 147.662 260.82 148.582 261.774 149.236C262.729 149.889 263.828 150.216 265.072 150.216C266.305 150.216 267.399 149.892 268.354 149.244C269.308 148.591 270.055 147.67 270.595 146.483C271.141 145.295 271.413 143.892 271.413 142.273ZM286.216 151V133.545H291.884C292.941 133.545 293.833 133.733 294.56 134.108C295.288 134.483 295.839 135.009 296.214 135.685C296.594 136.361 296.785 137.148 296.785 138.045C296.785 138.75 296.671 139.375 296.444 139.92C296.216 140.466 295.898 140.918 295.489 141.276C295.086 141.628 294.611 141.872 294.066 142.009V142.111C294.668 142.156 295.228 142.367 295.745 142.742C296.262 143.111 296.677 143.614 296.989 144.25C297.307 144.886 297.466 145.628 297.466 146.474C297.466 147.367 297.273 148.153 296.887 148.835C296.506 149.511 295.935 150.043 295.174 150.429C294.413 150.81 293.469 151 292.344 151H286.216ZM287.282 150.011H292.344C293.657 150.011 294.665 149.682 295.37 149.023C296.08 148.364 296.435 147.514 296.435 146.474C296.435 145.742 296.262 145.085 295.915 144.506C295.574 143.926 295.1 143.469 294.492 143.134C293.884 142.793 293.18 142.622 292.378 142.622H287.282V150.011ZM287.282 141.651H292.251C292.995 141.651 293.626 141.489 294.143 141.165C294.665 140.841 295.063 140.406 295.336 139.861C295.614 139.315 295.753 138.71 295.753 138.045C295.753 136.966 295.418 136.111 294.748 135.48C294.077 134.849 293.123 134.534 291.884 134.534H287.282V141.651ZM310.588 151H309.463L315.762 133.545H316.989L323.287 151H322.162L316.418 134.918H316.333L310.588 151ZM312.182 144.429H320.569V145.418H312.182V144.429ZM362.473 151L356.448 142.545H353.558V151H352.493V133.545H353.558V141.565H355.8L361.672 133.545H362.95L357.061 141.599L363.752 151H362.473ZM389.594 142.273C389.594 144.074 389.281 145.648 388.656 146.994C388.031 148.335 387.162 149.378 386.048 150.122C384.94 150.867 383.662 151.239 382.213 151.239C380.759 151.239 379.474 150.867 378.361 150.122C377.253 149.372 376.386 148.327 375.761 146.986C375.136 145.639 374.824 144.068 374.824 142.273C374.824 140.472 375.136 138.901 375.761 137.56C376.392 136.219 377.261 135.176 378.369 134.432C379.477 133.682 380.759 133.307 382.213 133.307C383.662 133.307 384.94 133.679 386.048 134.423C387.162 135.168 388.031 136.213 388.656 137.56C389.281 138.901 389.594 140.472 389.594 142.273ZM388.554 142.273C388.554 140.653 388.281 139.25 387.736 138.063C387.196 136.875 386.449 135.957 385.494 135.31C384.54 134.656 383.446 134.33 382.213 134.33C380.98 134.33 379.886 134.653 378.932 135.301C377.977 135.943 377.227 136.861 376.682 138.054C376.142 139.242 375.872 140.648 375.872 142.273C375.872 143.881 376.139 145.281 376.673 146.474C377.213 147.662 377.96 148.582 378.915 149.236C379.869 149.889 380.969 150.216 382.213 150.216C383.446 150.216 384.54 149.892 385.494 149.244C386.449 148.591 387.196 147.67 387.736 146.483C388.281 145.295 388.554 143.892 388.554 142.273ZM403.357 133.545H404.516L411.241 149.466H411.36L418.084 133.545H419.243V151H418.221V136.077H418.118L411.803 151H410.797L404.482 136.077H404.38V151H403.357V133.545ZM445.742 133.545V151H444.668V134.534H434.671V151H433.606V133.545H445.742ZM459.431 151H458.306L464.604 133.545H465.831L472.13 151H471.005L465.26 134.918H465.175L459.431 151ZM461.024 144.429H469.411V145.418H461.024V144.429ZM484.985 151V133.545H486.051V141.77H496.568V133.545H497.633V151H496.568V142.759H486.051V151H484.985ZM513.346 133.545V151H512.281V133.545H513.346ZM538.634 151H537.569V134.534H533.282C532.39 134.534 531.623 134.705 530.981 135.045C530.339 135.386 529.847 135.867 529.506 136.486C529.165 137.099 528.995 137.821 528.995 138.651C528.995 139.474 529.165 140.19 529.506 140.798C529.847 141.401 530.336 141.869 530.972 142.205C531.614 142.54 532.381 142.707 533.273 142.707H538.063V143.705H533.248C532.145 143.705 531.197 143.492 530.401 143.065C529.611 142.639 529.003 142.048 528.577 141.293C528.151 140.531 527.938 139.651 527.938 138.651C527.938 137.639 528.151 136.753 528.577 135.992C529.003 135.224 529.614 134.625 530.41 134.193C531.205 133.761 532.154 133.545 533.256 133.545H538.634V151ZM531.466 143.091H532.668L528.398 151H527.171L531.466 143.091Z" fill="#312C33"/>
<path d="M91.1132 122L94 124.887L96.8868 122L94 119.113L91.1132 122ZM584.887 122L582 119.113L579.113 122L582 124.887L584.887 122ZM94 122.5L582 122.5L582 121.5L94 121.5L94 122.5Z" fill="#312C33"/>
</svg>
